<svg id="visual" viewBox="0 0 1200 720" width="1200" height="720" xmlns="http://www.w3.org/2000/svg" xmlns:xlink="http://www.w3.org/1999/xlink" version="1.1"><path d="M0 698L8.7 695.3C17.3 692.7 34.7 687.3 52 686.8C69.3 686.3 86.7 690.7 104.2 695C121.7 699.3 139.3 703.7 156.8 704.7C174.3 705.7 191.7 703.3 209 693.8C226.3 684.3 243.7 667.7 261 662.5C278.3 657.3 295.7 663.7 313 668.8C330.3 674 347.7 678 365 679.5C382.3 681 399.7 680 417.2 674.7C434.7 669.3 452.3 659.7 469.8 660.8C487.3 662 504.7 674 522 678.5C539.3 683 556.7 680 574 679.2C591.3 678.3 608.7 679.7 626 675.7C643.3 671.7 660.7 662.3 678 657.2C695.3 652 712.7 651 730.2 657.2C747.7 663.3 765.3 676.7 782.8 682.7C800.3 688.7 817.7 687.3 835 680.8C852.3 674.3 869.7 662.7 887 667.2C904.3 671.7 921.7 692.3 939 692.5C956.3 692.7 973.7 672.3 991 665.3C1008.3 658.3 1025.7 664.7 1043.2 674.8C1060.7 685 1078.3 699 1095.8 704.2C1113.3 709.3 1130.7 705.7 1148 696.7C1165.3 687.7 1182.7 673.3 1191.3 666.2L1200 659L1200 721L1191.3 721C1182.7 721 1165.3 721 1148 721C1130.7 721 1113.3 721 1095.8 721C1078.3 721 1060.7 721 1043.2 721C1025.7 721 1008.3 721 991 721C973.7 721 956.3 721 939 721C921.7 721 904.3 721 887 721C869.7 721 852.3 721 835 721C817.7 721 800.3 721 782.8 721C765.3 721 747.7 721 730.2 721C712.7 721 695.3 721 678 721C660.7 721 643.3 721 626 721C608.7 721 591.3 721 574 721C556.7 721 539.3 721 522 721C504.7 721 487.3 721 469.8 721C452.3 721 434.7 721 417.2 721C399.7 721 382.3 721 365 721C347.7 721 330.3 721 313 721C295.7 721 278.3 721 261 721C243.7 721 226.3 721 209 721C191.7 721 174.3 721 156.8 721C139.3 721 121.7 721 104.2 721C86.7 721 69.3 721 52 721C34.7 721 17.3 721 8.7 721L0 721Z" fill="#004966"></path></svg>